<?xml version="1.0" encoding="UTF-8" standalone="no"?>
<!-- Created with Inkscape (http://www.inkscape.org/) -->

<svg
   version="1.1"
   id="svg9"
   xml:space="preserve"
   width="233.33333"
   height="233.33333"
   viewBox="0 0 233.33333 233.33333"
   sodipodi:docname="Postcovid_logo_solo.ai.svg"
   inkscape:version="1.1 (c4e8f9e, 2021-05-24)"
   inkscape:export-filename="/Users/pandelis/Downloads/postcovi_logo.png"
   inkscape:export-xdpi="96"
   inkscape:export-ydpi="96"
   xmlns:inkscape="http://www.inkscape.org/namespaces/inkscape"
   xmlns:sodipodi="http://sodipodi.sourceforge.net/DTD/sodipodi-0.dtd"
   xmlns:xlink="http://www.w3.org/1999/xlink"
   xmlns="http://www.w3.org/2000/svg"
   xmlns:svg="http://www.w3.org/2000/svg"><defs
     id="defs13"><linearGradient
       inkscape:collect="always"
       id="linearGradient1344"><stop
         style="stop-color:#5f868f;stop-opacity:0;"
         offset="0"
         id="stop1342" /><stop
         style="stop-color:#5f868f;stop-opacity:1;"
         offset="1"
         id="stop1340" /></linearGradient><clipPath
       clipPathUnits="userSpaceOnUse"
       id="clipPath23"><path
         d="M 0,175 H 175 V 0 H 0 Z"
         id="path21" /></clipPath><clipPath
       clipPathUnits="userSpaceOnUse"
       id="clipPath47"><path
         d="m 95.406,116.882 c -0.952,-2.301 1.067,-3.666 -0.111,-6.505 v 0 c -1.162,-2.808 -3.557,-2.352 -4.522,-4.681 v 0 c -0.613,-1.476 0.089,-3.172 1.571,-3.785 v 0 c 1.478,-0.612 3.174,0.089 3.786,1.567 v 0 c 0.952,2.304 -1.067,3.666 0.111,6.508 v 0 c 1.163,2.806 3.556,2.349 4.52,4.68 v 0 c 0.614,1.479 -0.089,3.173 -1.566,3.785 v 0 c -0.363,0.15 -0.739,0.222 -1.11,0.222 v 0 c -1.138,0 -2.218,-0.674 -2.679,-1.791 m -21.413,1.569 c -1.477,-0.612 -2.181,-2.309 -1.567,-3.785 v 0 c 0.953,-2.304 3.344,-1.839 4.521,-4.68 v 0 c 1.162,-2.806 -0.853,-4.177 0.112,-6.508 v 0 c 0.612,-1.478 2.308,-2.179 3.785,-1.567 v 0 c 1.481,0.613 2.181,2.309 1.57,3.785 v 0 c -0.953,2.302 -3.346,1.84 -4.523,4.681 v 0 c -1.161,2.805 0.854,4.177 -0.109,6.505 v 0 c -0.463,1.117 -1.542,1.791 -2.68,1.791 v 0 c -0.37,0 -0.747,-0.072 -1.109,-0.222 m 9.702,-6.472 c 0,-2.491 2.387,-2.978 2.387,-6.053 v 0 c 0,-3.038 -2.387,-3.533 -2.387,-6.054 v 0 c 0,-1.6 1.298,-2.899 2.899,-2.899 v 0 c 1.6,0 2.897,1.299 2.897,2.899 v 0 c 0,2.491 -2.384,2.978 -2.384,6.054 v 0 c 0,3.038 2.384,3.533 2.384,6.053 v 0 c 0,1.601 -1.297,2.9 -2.897,2.9 v 0 c -1.601,0 -2.899,-1.299 -2.899,-2.9 m 17.782,-4.964 c -1.762,-1.761 -0.418,-3.794 -2.591,-5.968 v 0 c -2.15,-2.149 -4.187,-0.81 -5.97,-2.593 v 0 c -1.132,-1.132 -1.132,-2.968 0,-4.098 v 0 c 1.132,-1.133 2.966,-1.133 4.1,0 v 0 c 1.759,1.762 0.418,3.79 2.591,5.967 v 0 c 2.149,2.147 4.188,0.811 5.97,2.594 v 0 c 1.132,1.131 1.132,2.967 0,4.098 v 0 c -0.566,0.566 -1.308,0.849 -2.05,0.849 v 0 c -0.742,0 -1.484,-0.283 -2.05,-0.849 m -33.866,0 c -1.132,-1.131 -1.132,-2.967 0,-4.098 v 0 c 1.761,-1.761 3.792,-0.419 5.968,-2.594 v 0 c 2.149,-2.148 0.811,-4.185 2.592,-5.967 v 0 c 1.132,-1.133 2.969,-1.133 4.101,0 v 0 c 1.131,1.13 1.131,2.966 0,4.098 v 0 c -1.76,1.761 -3.794,0.416 -5.969,2.593 v 0 c -2.149,2.148 -0.81,4.186 -2.595,5.968 v 0 c -0.565,0.566 -1.306,0.849 -2.047,0.849 v 0 c -0.743,0 -1.484,-0.283 -2.05,-0.849 m 45.614,-4.815 c -2.3,-0.95 -1.836,-3.342 -4.677,-4.521 v 0 c -1.45,-0.6 -2.516,-0.354 -3.529,-0.107 v 0 c -0.949,0.23 -1.852,0.461 -2.978,-0.004 v 0 c -1.479,-0.612 -2.18,-2.308 -1.569,-3.784 v 0 c 0.614,-1.48 2.309,-2.182 3.787,-1.571 v 0 c 2.304,0.952 1.838,3.345 4.68,4.523 v 0 c 1.447,0.599 2.513,0.352 3.525,0.105 v 0 c 0.949,-0.232 1.852,-0.464 2.979,0.003 v 0 c 1.48,0.615 2.183,2.31 1.571,3.789 v 0 c -0.463,1.116 -1.542,1.789 -2.68,1.789 v 0 c -0.37,0 -0.746,-0.071 -1.109,-0.222 m -57.05,-1.567 c -0.613,-1.479 0.089,-3.174 1.567,-3.789 v 0 c 1.109,-0.459 2.001,-0.227 2.944,0.004 v 0 c 1.014,0.248 2.09,0.497 3.563,-0.112 v 0 c 2.808,-1.164 2.352,-3.559 4.678,-4.523 v 0 c 1.481,-0.611 3.175,0.091 3.788,1.568 v 0 c 0.612,1.479 -0.09,3.175 -1.569,3.787 v 0 c -1.11,0.458 -2.001,0.228 -2.943,-0.004 v 0 c -1.015,-0.247 -2.091,-0.495 -3.563,0.115 v 0 c -2.805,1.163 -2.351,3.558 -4.678,4.521 v 0 c -0.363,0.151 -0.738,0.222 -1.108,0.222 v 0 c -1.138,0 -2.217,-0.673 -2.679,-1.789 m 48.312,-12.088 c -3.038,0 -3.532,2.387 -6.054,2.387 v 0 c -1.601,0 -2.898,-1.298 -2.898,-2.898 v 0 c 0,-1.602 1.297,-2.901 2.898,-2.901 v 0 c 2.493,0 2.977,2.388 6.054,2.388 v 0 c 3.039,0 3.536,-2.388 6.054,-2.388 v 0 c 1.601,0 2.897,1.299 2.897,2.901 v 0 c 0,1.6 -1.296,2.898 -2.897,2.898 v 0 c -2.492,0 -2.978,-2.387 -6.054,-2.387 m -35.785,0 c -3.039,0 -3.535,2.387 -6.056,2.387 v 0 c -1.6,0 -2.898,-1.298 -2.898,-2.898 v 0 c 0,-1.602 1.298,-2.901 2.898,-2.901 v 0 c 2.493,0 2.979,2.388 6.056,2.388 v 0 c 3.035,0 3.531,-2.388 6.051,-2.388 v 0 c 1.603,0 2.897,1.299 2.9,2.901 v 0 c 0,1.6 -1.297,2.898 -2.9,2.898 v 0 c -2.491,0 -2.979,-2.387 -6.051,-2.387 m 31.77,-6.262 c -0.611,-1.478 0.09,-3.174 1.569,-3.786 v 0 c 1.109,-0.461 2,-0.23 2.944,0.001 v 0 c 1.014,0.248 2.09,0.497 3.563,-0.114 v 0 c 2.805,-1.16 2.352,-3.556 4.677,-4.52 v 0 c 1.48,-0.613 3.176,0.088 3.789,1.57 v 0 c 0.612,1.477 -0.091,3.172 -1.571,3.786 v 0 c -1.11,0.459 -2.001,0.227 -2.944,-0.004 v 0 c -1.013,-0.249 -2.089,-0.498 -3.56,0.112 v 0 c -2.806,1.165 -2.351,3.559 -4.68,4.524 v 0 c -0.362,0.149 -0.737,0.221 -1.105,0.221 v 0 c -1.138,0 -2.218,-0.675 -2.682,-1.79 M 68.927,83.852 C 66.626,82.899 67.09,80.506 64.249,79.328 v 0 c -1.449,-0.6 -2.515,-0.352 -3.528,-0.105 v 0 c -0.949,0.231 -1.852,0.462 -2.979,-0.003 v 0 c -1.478,-0.614 -2.18,-2.309 -1.567,-3.786 v 0 c 0.612,-1.481 2.309,-2.183 3.787,-1.57 v 0 c 2.302,0.952 1.836,3.345 4.678,4.52 v 0 c 1.448,0.6 2.514,0.353 3.528,0.107 v 0 c 0.949,-0.231 1.852,-0.462 2.978,0.006 v 0 c 1.479,0.612 2.181,2.308 1.569,3.787 v 0 c -0.463,1.114 -1.542,1.789 -2.681,1.789 v 0 c -0.369,0 -0.744,-0.072 -1.107,-0.221 m 23.989,-2.144 c -1.132,-1.13 -1.132,-2.965 0,-4.097 v 0 c 1.76,-1.762 3.792,-0.418 5.97,-2.593 v 0 c 2.147,-2.148 0.81,-4.188 2.591,-5.967 v 0 c 1.132,-1.133 2.968,-1.133 4.1,0 v 0 c 1.132,1.131 1.132,2.967 0,4.097 v 0 c -1.763,1.761 -3.796,0.418 -5.97,2.592 v 0 c -2.146,2.15 -0.809,4.187 -2.591,5.968 v 0 c -0.567,0.566 -1.309,0.85 -2.051,0.85 v 0 c -0.741,0 -1.483,-0.284 -2.049,-0.85 m -16.745,0 C 74.409,79.947 75.754,77.916 73.579,75.74 v 0 C 71.43,73.595 69.392,74.93 67.611,73.148 v 0 c -1.132,-1.13 -1.132,-2.966 0,-4.097 v 0 c 1.132,-1.133 2.968,-1.133 4.097,0 v 0 c 1.764,1.76 0.42,3.792 2.595,5.967 v 0 c 2.147,2.148 4.186,0.81 5.969,2.593 v 0 c 1.131,1.132 1.131,2.967 0,4.097 v 0 c -0.566,0.566 -1.309,0.85 -2.051,0.85 v 0 c -0.742,0 -1.484,-0.284 -2.05,-0.85 m 7.524,-5.515 c 0,-2.491 2.387,-2.976 2.387,-6.054 v 0 c 0,-3.039 -2.387,-3.534 -2.387,-6.054 v 0 c 0,-1.601 1.298,-2.899 2.899,-2.899 v 0 c 1.6,0 2.897,1.298 2.897,2.899 v 0 c 0,2.492 -2.384,2.979 -2.384,6.054 v 0 c 0,3.039 2.384,3.533 2.384,6.054 v 0 c 0,1.6 -1.297,2.899 -2.897,2.899 v 0 c -1.601,0 -2.899,-1.299 -2.899,-2.899 m 8.649,-2.038 C 90.862,73.54 90.16,71.846 90.773,70.368 v 0 c 0.953,-2.304 3.345,-1.838 4.522,-4.681 v 0 c 1.164,-2.806 -0.852,-4.177 0.111,-6.503 v 0 c 0.611,-1.48 2.309,-2.184 3.789,-1.571 v 0 c 1.477,0.612 2.18,2.308 1.566,3.785 v 0 c -0.953,2.305 -3.343,1.84 -4.52,4.681 v 0 c -1.165,2.807 0.853,4.179 -0.111,6.507 v 0 c -0.462,1.117 -1.542,1.789 -2.678,1.789 v 0 c -0.37,0 -0.746,-0.07 -1.108,-0.22 M 77.059,72.586 c -0.956,-2.304 1.064,-3.664 -0.112,-6.507 v 0 c -1.163,-2.807 -3.558,-2.351 -4.521,-4.681 v 0 c -0.614,-1.477 0.09,-3.173 1.567,-3.785 v 0 c 1.478,-0.613 3.176,0.091 3.789,1.571 v 0 c 0.954,2.299 -1.067,3.664 0.109,6.503 v 0 c 1.163,2.808 3.558,2.352 4.523,4.681 v 0 c 0.611,1.478 -0.089,3.172 -1.57,3.787 v 0 c -0.362,0.149 -0.738,0.22 -1.107,0.22 v 0 c -1.137,0 -2.216,-0.672 -2.678,-1.789"
         id="path45" /></clipPath><clipPath
       clipPathUnits="userSpaceOnUse"
       id="clipPath57"><path
         d="M -2.0961305,217.53581 H 496.03174 V -138.2696 H -2.0961305 Z"
         id="path55" /></clipPath><radialGradient
       fx="0"
       fy="0"
       cx="0"
       cy="0"
       r="1"
       gradientUnits="userSpaceOnUse"
       gradientTransform="matrix(40.855084,0,0,40.855084,115.53946,116.03808)"
       spreadMethod="pad"
       id="48"><stop
         style="stop-opacity:1;stop-color:#f9a870"
         offset="0"
         id="stop59" /><stop
         style="stop-opacity:1;stop-color:#f15a40"
         offset="1"
         id="stop61" /></radialGradient><radialGradient
       inkscape:collect="always"
       xlink:href="#linearGradient1344"
       id="radialGradient1346"
       cx="115.45942"
       cy="115.95722"
       fx="115.45942"
       fy="115.95722"
       r="40.854531"
       gradientTransform="matrix(1,0,0,0.9999798,0,0.00234194)"
       gradientUnits="userSpaceOnUse" /></defs><sodipodi:namedview
     id="namedview11"
     pagecolor="#ffffff"
     bordercolor="#666666"
     borderopacity="1.0"
     inkscape:pageshadow="2"
     inkscape:pageopacity="0.0"
     inkscape:pagecheckerboard="0"
     showgrid="false"
     inkscape:zoom="7.2942859"
     inkscape:cx="97.267918"
     inkscape:cy="116.73521"
     inkscape:window-width="1920"
     inkscape:window-height="1035"
     inkscape:window-x="0"
     inkscape:window-y="23"
     inkscape:window-maximized="1"
     inkscape:current-layer="g15"
     inkscape:snap-global="true" /><g
     id="g15"
     inkscape:groupmode="layer"
     inkscape:label="CoVidAffect_logo_solo"
     transform="matrix(1.3333333,0,0,-1.3333333,0,233.33333)"><g
       id="g41"><g
         id="g43"
         clip-path="url(#clipPath47)"><g
           id="g49"><g
             id="g53"
             clip-path="url(#clipPath57)"><path
               id="path65"
               style="fill:url(#radialGradient1346);stroke:none;stroke-width:1.33333;fill-opacity:1;opacity:1"
               d="M 100.13672 75.103516 C 99.643378 75.103516 99.14087 75.198431 98.658203 75.398438 C 96.68887 76.214437 95.749693 78.477313 96.568359 80.445312 C 97.839026 83.517319 101.02637 82.897547 102.5957 86.685547 C 104.14504 90.42688 101.45943 92.255281 102.74609 95.363281 C 103.56209 97.333948 105.82364 98.267172 107.79297 97.451172 C 109.76764 96.633839 110.69943 94.37425 109.88477 92.40625 C 108.6141 89.336917 105.4248 89.952069 103.85547 86.164062 C 102.30747 82.424063 104.99298 80.594234 103.70898 77.490234 C 103.09165 76.000901 101.65405 75.103516 100.13672 75.103516 z M 130.7793 75.103516 C 129.26196 75.103516 127.8217 76.000901 127.20703 77.490234 C 125.9377 80.558234 128.63121 82.378729 127.06055 86.164062 C 125.51121 89.908069 122.31792 89.300917 121.03125 92.40625 C 120.21392 94.37425 121.149 96.633839 123.125 97.451172 C 125.09567 98.267172 127.35783 97.333948 128.17383 95.363281 C 129.44316 92.291281 126.7516 90.47488 128.32227 86.685547 C 129.87293 82.944214 133.06232 83.553319 134.34766 80.445312 C 135.16632 78.473313 134.2291 76.214437 132.25977 75.398438 C 131.77577 75.198431 131.27396 75.103516 130.7793 75.103516 z M 115.45898 80.162109 C 113.32432 80.162109 111.59375 81.892677 111.59375 84.027344 C 111.59375 87.348677 114.77539 87.999609 114.77539 92.099609 C 114.77539 96.150276 111.59375 96.808603 111.59375 100.16992 C 111.59375 102.30326 113.32432 104.03516 115.45898 104.03516 C 117.59232 104.03516 119.32227 102.30326 119.32227 100.16992 C 119.32227 96.848603 116.14258 96.200943 116.14258 92.099609 C 116.14258 88.048943 119.32227 87.387344 119.32227 84.027344 C 119.32227 81.892677 117.59232 80.162109 115.45898 80.162109 z M 92.880859 89.515625 C 91.890193 89.515625 90.903104 89.891818 90.148438 90.646484 C 88.639097 92.154484 88.639097 94.603328 90.148438 96.111328 C 92.496437 98.459328 95.204135 96.668359 98.105469 99.568359 C 100.9708 102.43236 99.185859 105.14939 101.56055 107.52539 C 103.06988 109.03606 105.51996 109.03606 107.0293 107.52539 C 108.5373 106.01872 108.5373 103.56988 107.0293 102.06055 C 104.68263 99.712526 101.97031 101.50618 99.070312 98.603516 C 96.204979 95.739516 97.991328 93.022484 95.611328 90.646484 C 94.857995 89.891818 93.868859 89.515625 92.880859 89.515625 z M 138.03516 89.515625 C 137.04582 89.515625 136.0574 89.891818 135.30273 90.646484 C 132.9534 92.994484 134.74499 95.704849 131.84766 98.603516 C 128.98099 101.46885 126.26601 99.683193 123.88867 102.06055 C 122.37934 103.56988 122.37934 106.01872 123.88867 107.52539 C 125.39801 109.03606 127.84347 109.03606 129.35547 107.52539 C 131.7008 105.17606 129.91126 102.47103 132.80859 99.568359 C 135.67393 96.705693 138.39353 98.488661 140.76953 96.111328 C 142.27886 94.603328 142.27886 92.154484 140.76953 90.646484 C 140.01486 89.891818 139.02449 89.515625 138.03516 89.515625 z M 78.472656 96.771484 C 76.955323 96.771484 75.516391 97.66825 74.900391 99.15625 C 74.083057 101.12825 75.019568 103.38703 76.990234 104.20703 C 78.468901 104.81903 79.656729 104.51119 80.914062 104.20312 C 82.266069 103.87246 83.702016 103.53956 85.666016 104.35156 C 89.410016 105.90356 88.80101 109.09748 91.902344 110.38281 C 93.87701 111.19748 96.135792 110.2623 96.953125 108.29297 C 97.769125 106.32097 96.833328 104.05819 94.861328 103.24219 C 93.381328 102.63152 92.1935 102.93871 90.9375 103.24805 C 89.584167 103.57738 88.150167 103.90708 86.1875 103.09375 C 82.4475 101.54308 83.051885 98.350406 79.949219 97.066406 C 79.465219 96.865073 78.96599 96.771484 78.472656 96.771484 z M 152.44531 96.771484 C 151.95198 96.771484 151.4508 96.865073 150.9668 97.066406 C 147.90013 98.333073 148.51847 101.52175 144.73047 103.09375 C 142.79714 103.89375 141.37606 103.56761 140.02539 103.23828 C 138.76006 102.93161 137.55602 102.62219 136.05469 103.24219 C 134.08269 104.05819 133.14822 106.31911 133.96289 108.28711 C 134.78156 110.26044 137.04105 111.19748 139.01172 110.38281 C 142.08372 109.11348 141.46262 105.92223 145.25195 104.35156 C 147.18129 103.5529 148.60184 103.88356 149.95117 104.21289 C 151.21651 104.52222 152.42116 104.8297 153.92383 104.20703 C 155.89716 103.38703 156.83553 101.12825 156.01953 99.15625 C 155.4022 97.66825 153.96265 96.771484 152.44531 96.771484 z M 83.527344 112.08984 C 81.39401 112.08984 79.664062 113.82174 79.664062 115.95508 C 79.664062 118.09108 81.39401 119.82227 83.527344 119.82227 C 86.851344 119.82227 87.500849 116.63867 91.603516 116.63867 C 95.650182 116.63867 96.309922 119.82227 99.669922 119.82227 C 101.80726 119.82227 103.53311 118.09108 103.53711 115.95508 C 103.53711 113.82174 101.80726 112.08984 99.669922 112.08984 C 96.348589 112.08984 95.699516 115.27344 91.603516 115.27344 C 87.551516 115.27344 86.888677 112.08984 83.527344 112.08984 z M 131.24414 112.08984 C 129.10947 112.08984 127.38086 113.82174 127.38086 115.95508 C 127.38086 118.09108 129.10947 119.82227 131.24414 119.82227 C 134.56814 119.82227 135.21374 116.63867 139.31641 116.63867 C 143.36841 116.63867 144.03134 119.82227 147.38867 119.82227 C 149.52334 119.82227 151.25 118.09108 151.25 115.95508 C 151.25 113.82174 149.52334 112.08984 147.38867 112.08984 C 144.06601 112.08984 143.41774 115.27344 139.31641 115.27344 C 135.26574 115.27344 134.60681 112.08984 131.24414 112.08984 z M 93.378906 121.23633 C 92.886906 121.23633 92.386344 121.33258 91.902344 121.53125 C 88.834344 122.80192 89.454016 125.99183 85.666016 127.5625 C 83.734016 128.3625 82.311604 128.03253 80.960938 127.70312 C 79.695597 127.39513 78.492901 127.08703 76.990234 127.70703 C 75.019568 128.5257 74.083057 130.78457 74.900391 132.75391 C 75.716391 134.72857 77.978552 135.66499 79.949219 134.84766 C 83.018552 133.57832 82.398167 130.38893 86.1875 128.82227 C 88.118167 128.02227 89.538625 128.34973 90.890625 128.67773 C 92.155958 128.98573 93.359995 129.29392 94.861328 128.66992 C 96.833328 127.85392 97.769125 125.59309 96.953125 123.62109 C 96.335792 122.13576 94.897573 121.23633 93.378906 121.23633 z M 137.53906 121.23633 C 136.02173 121.23633 134.58156 122.13638 133.96289 123.62305 C 133.14822 125.59371 134.08269 127.85392 136.05469 128.66992 C 137.53335 129.28459 138.7218 128.97792 139.98047 128.66992 C 141.33247 128.33926 142.76647 128.0076 144.73047 128.82227 C 148.47047 130.36893 147.8668 133.56232 150.9668 134.84766 C 152.94013 135.66499 155.2022 134.72991 156.01953 132.75391 C 156.83553 130.78457 155.89716 128.5257 153.92383 127.70703 C 152.44383 127.09503 151.25538 127.40489 149.99805 127.71289 C 148.64738 128.04489 147.21329 128.37583 145.25195 127.5625 C 141.51062 126.00917 142.11705 122.81792 139.01172 121.53125 C 138.52905 121.33258 138.02973 121.23633 137.53906 121.23633 z M 104.29492 123.25586 C 103.30559 123.25586 102.31521 123.63401 101.56055 124.38867 C 99.211193 126.73667 101.00547 129.44437 98.105469 132.3457 C 95.240135 135.2057 92.523104 133.42673 90.148438 135.80273 C 88.639097 137.3094 88.639097 139.75763 90.148438 141.26562 C 91.657771 142.77636 94.105995 142.77636 95.611328 141.26562 C 97.963328 138.91896 96.170313 136.20859 99.070312 133.30859 C 101.93298 130.44459 104.65196 132.2289 107.0293 129.85156 C 108.5373 128.34223 108.5373 125.89534 107.0293 124.38867 C 106.27463 123.63401 105.28426 123.25586 104.29492 123.25586 z M 126.61914 123.25586 C 125.63114 123.25586 124.64334 123.63401 123.88867 124.38867 C 122.37934 125.89534 122.37934 128.34223 123.88867 129.85156 C 126.23534 132.2009 128.94366 130.40859 131.84766 133.30859 C 134.71032 136.17259 132.92807 138.89363 135.30273 141.26562 C 136.81207 142.77636 139.2602 142.77636 140.76953 141.26562 C 142.27886 139.75763 142.27886 137.3094 140.76953 135.80273 C 138.41886 133.45473 135.70726 135.24437 132.80859 132.3457 C 129.94726 129.47904 131.73147 126.76334 129.35547 124.38867 C 128.59947 123.63401 127.60847 123.25586 126.61914 123.25586 z M 115.45898 127.87695 C 113.32432 127.87695 111.59375 129.60885 111.59375 131.74219 C 111.59375 135.06352 114.77539 135.71045 114.77539 139.81445 C 114.77539 143.86645 111.59375 144.52672 111.59375 147.88672 C 111.59375 150.02139 113.32432 151.75195 115.45898 151.75195 C 117.59232 151.75195 119.32227 150.02139 119.32227 147.88672 C 119.32227 144.56405 116.14258 143.91445 116.14258 139.81445 C 116.14258 135.76245 119.32227 135.10352 119.32227 131.74219 C 119.32227 129.60885 117.59232 127.87695 115.45898 127.87695 z M 106.31641 134.16602 C 104.80041 134.16602 103.36209 135.0634 102.74609 136.55273 C 101.47143 139.62473 104.1637 141.43785 102.5957 145.22852 C 101.04504 148.97118 97.852359 148.36208 96.568359 151.46875 C 95.749693 153.43808 96.68887 155.69963 98.658203 156.51562 C 100.62887 157.33303 102.89165 156.39521 103.70898 154.42188 C 104.98098 151.35647 102.28747 149.53533 103.85547 145.75 C 105.40614 142.006 108.5981 142.6151 109.88477 139.50977 C 110.69943 137.5391 109.76764 135.28094 107.79297 134.46094 C 107.3103 134.26227 106.80841 134.16602 106.31641 134.16602 z M 124.60352 134.16602 C 124.11018 134.16602 123.60767 134.26094 123.125 134.46094 C 121.149 135.28094 120.21392 137.5391 121.03125 139.50977 C 122.30192 142.58177 125.49121 141.95933 127.06055 145.75 C 128.61255 149.49133 125.92303 151.32047 127.20703 154.42188 C 128.0217 156.39521 130.28643 157.33303 132.25977 156.51562 C 134.2291 155.69963 135.16632 153.43808 134.34766 151.46875 C 133.07699 148.39542 129.8916 149.01652 128.32227 145.22852 C 126.76893 141.48585 129.45916 139.65673 128.17383 136.55273 C 127.55783 135.0634 126.11818 134.16602 124.60352 134.16602 z "
               transform="matrix(0.75000002,0,0,-0.75000002,0,175)" /></g></g></g></g><g
       id="g17"><g
         id="g19"
         clip-path="url(#clipPath23)"><path
           style="opacity:1;fill:#5f868f;fill-opacity:1;stroke-width:0.874;stroke:#5f868f;stroke-opacity:1;stroke-miterlimit:4;stroke-dasharray:none"
           d="m 182.85443,185.64412 c -0.93692,-0.40785 -1.85499,-1.55295 -2.11728,-2.64085 -0.41142,-1.70647 0.0496,-2.28339 8.85881,-11.08622 8.958,-8.95151 9.21343,-9.28276 8.00289,-10.37828 -1.15573,-1.04593 -1.37732,-0.86678 -11.95614,9.66597 -8.81046,8.77211 -10.30061,10.14538 -11.18984,10.3122 -1.31331,0.24638 -2.15689,0.0274 -3.16625,-0.82193 -1.08403,-0.91214 -1.53579,-2.07762 -1.30237,-3.35985 0.16427,-0.90235 1.46674,-2.31457 10.3134,-11.18253 9.106,-9.12793 10.12538,-10.23835 10.12538,-11.02972 0,-1.07065 -0.99472,-1.86384 -1.97444,-1.57443 -0.34669,0.10241 -5.81248,5.34358 -12.1462,11.64703 -6.33373,6.30346 -11.78537,11.59711 -12.11476,11.76368 -1.5175,0.76737 -3.78337,-0.0166 -4.59735,-1.59072 -0.55309,-1.06955 -0.54149,-2.74348 0.0249,-3.59771 0.24724,-0.37286 5.61445,-5.86345 11.92715,-12.20131 6.3127,-6.33785 11.47763,-11.70846 11.47763,-11.93468 0,-0.84789 -0.83028,-1.63007 -1.7303,-1.63007 -0.79125,0 -2.14515,1.27034 -13.89945,13.0417 -7.16255,7.17293 -13.38257,13.2325 -13.82226,13.46571 -2.49772,1.32473 -5.70885,-1.12088 -5.21263,-3.96996 0.15636,-0.89774 3.08661,-3.93198 25.60449,-26.51317 l 25.42792,-25.49941 -5.56704,-5.4152 -5.56705,-5.41519 h -1.52874 c -3.99963,0 -9.18861,-3.04488 -10.77554,-6.323044 -1.24602,-2.573935 -1.31999,-6.033045 -0.13871,-6.486346 0.68436,-0.262612 2.63847,0.358289 6.66094,2.116456 3.30652,1.445234 4.00277,1.648599 6.5244,1.905691 11.88329,1.211555 21.93474,6.684643 28.65068,15.600533 5.18639,6.88528 7.57491,14.35038 7.24092,22.63077 -0.20046,4.96996 -1.17466,8.77085 -3.34857,13.06467 -2.02856,4.00673 -3.24809,5.36367 -19.14818,21.30582 -8.60932,8.63208 -16.04571,15.88091 -16.52533,16.1085 -1.06211,0.504 -1.88974,0.51002 -3.01109,0.0219 z"
           id="path5155"
           transform="matrix(0.75000002,0,0,-0.75000002,0,175)" /><path
           style="opacity:1;fill:#5f868f;fill-opacity:1;stroke-width:0.674;stroke:#5f868f;stroke-opacity:1;stroke-miterlimit:4;stroke-dasharray:none"
           d="m 167.66549,84.010269 c -0.37701,-0.147145 -12.06231,-11.6393 -25.96734,-25.538116 l -25.28186,-25.270576 -5.4271,5.589381 c -4.65146,4.790534 -5.41541,5.695349 -5.34525,6.330816 0.12521,1.134129 -0.68379,4.252682 -1.60269,6.178072 -1.70785,3.578456 -4.855629,5.976999 -8.312257,6.333755 -1.664458,0.171789 -3.190805,-0.427233 -3.190805,-1.252243 0,-0.764476 0.880561,-3.141723 2.450785,-6.616377 1.234835,-2.732489 1.458754,-3.500658 1.678435,-5.757931 0.356009,-3.658086 0.965638,-6.725775 1.921791,-9.670557 4.929011,-15.180479 18.371721,-25.9629066 33.294861,-26.7058629 7.26476,-0.3616806 13.75161,1.4859176 19.82735,5.6472739 1.94969,1.335363 5.55562,4.794001 17.89625,17.165219 8.50003,8.521094 15.60763,15.76834 15.79467,16.10499 0.4905,0.882825 0.435,2.593188 -0.11432,3.523122 -0.26061,0.441178 -1.00498,1.059262 -1.65414,1.373516 -2.31818,1.12221 -2.21823,1.193101 -11.86954,-8.418757 -6.09502,-6.070108 -8.829,-8.615497 -9.25381,-8.615497 -0.77761,0 -1.69971,0.924951 -1.69971,1.704953 0,0.43317 2.82959,3.451387 9.83223,10.487662 5.40772,5.4337 10.03463,10.184525 10.28202,10.557387 0.60768,0.915903 0.56641,2.69188 -0.0875,3.7643 -0.75045,1.230791 -2.00748,1.820518 -3.51768,1.650294 -1.18971,-0.134096 -1.49312,-0.408316 -11.41037,-10.312557 -7.45175,-7.441976 -10.35641,-10.174797 -10.81461,-10.174797 -1.16533,0 -1.68716,0.489317 -1.68716,1.582036 0,0.971001 0.50405,1.518904 11.79005,12.815946 l 11.79005,11.801581 v 1.371133 c 0,1.929864 -0.8857,3.142128 -2.67332,3.658985 -2.04217,0.590454 -2.12517,0.522694 -14.60765,-11.924893 -10.481,-10.451702 -11.74855,-11.627546 -12.53442,-11.627546 -0.94563,0 -1.44195,0.581392 -1.44195,1.689114 0,0.463527 3.48948,4.120585 13.29885,13.937532 10.14506,10.152884 13.36279,13.532044 13.56845,14.249145 0.82409,2.873439 -2.1087,5.471571 -4.93232,4.369497 z"
           id="path5038"
           transform="matrix(0.75000002,0,0,-0.75000002,0,175)" /><path
           id="path5077"
           style="opacity:1;fill:#5f868f;fill-opacity:1;stroke-width:0.974;stroke:#5f868f;stroke-opacity:1;stroke-miterlimit:4;stroke-dasharray:none"
           d="M 48.367188 47.296875 C 47.86287 47.28505 47.365543 47.386586 46.917969 47.621094 C 46.002053 48.100992 16.14659 77.893339 14.654297 79.816406 C 11.828278 83.458204 9.745715 87.794453 8.5722656 92.480469 C 8.0755099 94.4642 7.9741165 95.656336 7.9726562 99.529297 C 7.9710968 103.66119 8.0528872 104.51907 8.6953125 107.07812 C 9.525908 110.38676 10.156749 112.08332 11.685547 115.11719 C 17.745009 127.14208 29.892366 135.10268 44.15625 136.39453 C 46.585349 136.61453 47.232429 136.79768 50.039062 138.06836 C 51.773299 138.85353 53.808485 139.71766 54.5625 139.98828 C 56.694522 140.75347 57.126831 140.6837 57.623047 139.49609 C 58.458158 137.49739 57.358101 133.78179 55.302734 131.66016 C 53.175244 129.46409 49.13927 127.63208 46.150391 127.50586 L 44.589844 127.43945 L 39.021484 122.05664 L 33.451172 116.67383 L 58.863281 91.240234 C 86.537628 63.542498 85.094523 65.156489 84.318359 62.804688 C 83.952679 61.696663 82.596431 60.536185 81.570312 60.453125 C 79.359176 60.274143 80.006324 59.722501 65.808594 73.892578 C 55.947379 83.734586 52.179203 87.328125 51.722656 87.328125 C 50.619996 87.328125 50.039064 86.830935 50.039062 85.886719 C 50.039062 85.100852 51.214314 83.832562 61.666016 73.351562 C 74.145946 60.836649 74.171661 60.806385 73.589844 58.699219 C 73.447535 58.183815 72.898536 57.380831 72.369141 56.916016 C 71.558487 56.204251 71.182502 56.070314 69.984375 56.070312 L 68.560547 56.070312 L 56.759766 67.861328 C 45.462723 79.147335 44.91436 79.652344 43.943359 79.652344 C 42.85064 79.652344 42.361328 79.130169 42.361328 77.964844 C 42.361328 77.506647 45.095134 74.602139 52.537109 67.150391 C 62.44135 57.233146 62.715512 56.927994 62.849609 55.738281 C 63.019832 54.228083 62.43001 52.97116 61.199219 52.220703 C 60.126799 51.566811 58.35145 51.527081 57.435547 52.134766 C 57.062685 52.382152 52.310653 57.008291 46.876953 62.416016 C 39.840678 69.418652 36.821841 72.248047 36.388672 72.248047 C 35.608669 72.248047 34.685547 71.32643 34.685547 70.548828 C 34.685547 70.124181 37.230629 67.387478 43.292969 61.294922 C 52.464041 52.078139 52.61334 51.884589 51.974609 49.949219 C 51.460447 48.391291 49.880134 47.332351 48.367188 47.296875 z "
           transform="matrix(0.75000002,0,0,-0.75000002,0,175)" /><path
           style="opacity:1;fill:#5f868f;fill-opacity:1;stroke:#5f868f;stroke-width:0.581102;stroke-miterlimit:4;stroke-dasharray:none;stroke-opacity:1"
           d="m 72.302449,5.9218345 c -2.730346,0.29523 -5.828948,1.19421 -8.225617,2.3864626 C 60.669358,10.00338 59.886166,10.704412 47.64475,23.016517 41.18739,29.511165 35.7917,35.02479 35.65433,35.269013 c -0.965892,1.7172 0.716253,3.983865 2.796963,3.768862 0.87325,-0.09023 1.107661,-0.298717 7.335727,-6.52443 5.77565,-5.77347 6.501351,-6.43122 7.095598,-6.43122 0.407719,0 0.769236,0.146723 0.941301,0.382035 0.707962,0.968198 0.610269,1.089353 -7.203951,8.93388 -4.115817,4.13178 -7.585999,7.714455 -7.711516,7.961498 -0.561682,1.105515 -0.06418,2.673773 1.067024,3.363503 0.72889,0.444427 1.984707,0.52641 2.676861,0.174742 0.247045,-0.12552 3.829719,-3.595703 7.961499,-7.711515 4.928935,-4.90989 7.655706,-7.483305 7.929261,-7.483305 0.594497,0 1.067631,0.421627 1.230596,1.096635 0.132829,0.550185 -0.351236,1.075612 -8.71479,9.459465 -5.988953,6.003488 -8.901262,9.063585 -8.997019,9.453593 -0.486427,1.981177 1.213118,3.897232 3.144012,3.54453 0.679261,-0.12408 1.863675,-1.227765 9.62489,-8.96889 6.47595,-6.459188 8.975982,-8.827403 9.318748,-8.827403 0.830847,0 1.263961,0.372712 1.263961,1.087687 0,0.59913 -0.899455,1.55934 -9.480223,10.120553 -5.214123,5.202248 -9.748494,9.819525 -10.076381,10.26063 -1.013513,1.36347 -0.697865,3.187103 0.699078,4.038871 0.732246,0.446475 1.787206,0.52161 2.471221,0.176002 0.247045,-0.124822 8.979877,-8.747873 19.406292,-19.162343 L 87.3906,25.047 l 4.116308,4.202003 4.1163,4.202002 0.0097,1.17525 c 0.0255,3.082403 2.321857,6.87732 4.899522,8.096745 2.17557,1.02921 4.7753,0.85272 4.7753,-0.324187 0,-0.607988 -0.54935,-2.113793 -1.76391,-4.834995 -0.97485,-2.184143 -1.12551,-2.70939 -1.3112,-4.57122 -0.74381,-7.458 -3.449502,-13.457573 -8.372742,-18.565643 C 89.720205,10.131825 84.923812,7.4569495 79.308075,6.3116095 77.65233,5.9739145 73.802027,5.759692 72.302487,5.9218345 Z"
           id="path5116" /></g></g></g></svg>
